<svg version="1.1" xmlns="http://www.w3.org/2000/svg" xmlns:xlink="http://www.w3.org/1999/xlink" width="19.17363" height="24.03227" viewBox="0,0,19.17363,24.03227"><g transform="translate(-233.05091,-179.52986)"><g data-paper-data="{&quot;isPaintingLayer&quot;:true}" fill-rule="nonzero" stroke="none" stroke-linecap="butt" stroke-linejoin="miter" stroke-miterlimit="10" stroke-dasharray="" stroke-dashoffset="0" style="mix-blend-mode: normal"><path d="M240.38684,194.47107c-0.47434,0.15811 -0.63246,-0.31623 -0.63246,-0.31623l-0.10457,-0.3488c-0.0646,-0.58673 -0.08303,-1.10109 -0.16981,-1.63957c-1.33922,-0.1128 -3.69368,-1.71944 -4.54362,-2.14238c-1.80409,-0.77397 -0.33105,1.77266 0.08382,2.60149c1.27671,2.55062 2.57096,5.30465 4.40358,7.50049c1.11966,2.49524 2.8688,2.22312 5.32954,2.22312c0.6451,0 1.41927,0.46371 1.93386,0.07467c0.48268,-0.36492 0.54775,-1.08116 1.24716,-1.48583c1.26002,-0.72902 1.76196,-0.46196 2.32787,-1.97723c0.83037,-1.65636 1.37533,-5.88773 0.72491,-7.66543c-0.17001,-0.46468 -1.05103,-2.06164 -1.5892,-2.86147c-0.00773,0.30841 -0.05398,0.61676 -0.12379,0.92106c0.00415,0.0172 0.0083,0.0344 0.01246,0.0516h0.04869v0.81967c0,0.27614 -0.22386,0.5 -0.5,0.5c-0.27614,0 -0.5,-0.22386 -0.5,-0.5v-0.52731c-0.115,-0.44951 -0.22017,-0.90156 -0.32053,-1.35457c-0.0089,-0.12915 -0.02841,-0.2686 -0.04431,-0.40989c-0.53485,-1.19181 -1.09316,-2.15139 -1.09417,0.16062c-0.00012,0.28153 -0.00041,0.56305 -0.00062,0.84458l-0.00964,0.02407l0.00778,0.00078l-0.08142,0.81417c-0.0224,0.25542 -0.23684,0.45575 -0.49807,0.45575c-0.21846,0 -0.4042,-0.14011 -0.47226,-0.33537l-0.2418,-0.64481l0.2697,-0.10114l0.02693,-0.26934c-0.0014,-0.30473 -0.08906,-1.16318 -0.07215,-1.87025c-0.04867,-0.64022 -0.14879,-1.1841 -0.44798,-1.44428c-1.76673,-1.53643 -0.90903,4.02352 -0.85878,4.37564l-0.01453,0.03544h0.01579v0.57377c0,0.27614 -0.22386,0.5 -0.5,0.5c-0.24861,0 -0.45484,-0.18145 -0.49349,-0.41913l-0.16237,-0.89306l0.10926,-0.01987c-0.01841,-0.10532 -0.03951,-0.22177 -0.06206,-0.34729c-0.72447,-2.64649 -0.2194,-5.39067 -0.85524,-8.1079c-0.33446,-1.42931 -1.23198,-0.37852 -1.23407,0.63418c-0.02858,0.20301 -0.05716,0.40602 -0.08573,0.60904l0.00503,0.25716c0,0 0,0.5 -0.5,0.5c-0.36633,0 -0.46426,-0.26839 -0.49045,-0.4119c-0.05022,2.18705 -0.34985,4.40456 -0.23983,6.60556c0.01057,0.21143 0.15274,0.94477 0.20823,1.58446c0.07545,0.09663 0.10279,0.19687 0.10279,0.19687c0.23042,0.85982 0.24455,1.58096 0.34243,2.45339l0.05937,0.143c0,0 0.15811,0.47434 -0.31623,0.63246zM240.23375,182.31225c0.02334,-0.16071 0.04667,-0.32141 0.07001,-0.48212c-0.00385,-1.64824 1.57214,-3.36867 2.88712,-1.46354c0.60641,0.87856 0.70627,2.5584 0.74099,4.19018c0.25546,-0.1426 0.58164,-0.20407 0.99453,-0.15775c0.62553,0.07018 1.13578,0.6524 1.46201,1.39863c0.79836,-0.29873 1.92804,0.25661 2.48447,0.89388c0.62551,-0.00252 1.35632,1.43618 1.66751,1.83296c2.09485,2.671 2.14993,7.80536 0.63846,10.83604c-1.63055,4.33118 -10.45451,6.18054 -12.60419,1.29375c-2.10307,-2.52744 -3.76562,-5.84706 -5.18976,-8.81744c-0.86466,-1.80346 0.00458,-3.56244 1.97223,-2.71993c1.19951,0.60282 3.0693,1.03922 3.97849,2.11003c0.00842,-0.0346 0.0209,-0.06989 0.0389,-0.10427c-0.10935,-0.25663 -0.27888,-0.64449 -0.299,-0.84619c-0.05597,-0.56112 -0.08439,-1.12569 -0.0845,-1.68959c-0.00041,-2.07404 0.25543,-4.17515 0.2459,-6.22951c0,0 0,-0.5 0.5,-0.5c0.40736,0 0.48284,0.33189 0.49682,0.45487z" fill="#000000" stroke-width="0.5"/><path d="M240.41778,194.43178c0.47434,-0.15812 0.25254,-0.5554 0.25254,-0.5554l-0.06112,-0.14459c-0.09788,-0.87243 -0.12701,-1.6367 -0.35743,-2.49652c0,0 -0.02672,-0.10377 -0.10217,-0.2004c-0.05549,-0.63969 -0.18801,-1.39354 -0.19858,-1.60497c-0.11002,-2.201 0.21539,-4.43568 0.26561,-6.62273c0.02619,0.14351 0.12617,0.41137 0.4925,0.41137c0.5,0 0.5033,-0.50066 0.5033,-0.50066l-0.00483,-0.25719c0.02857,-0.20302 0.05807,-0.40617 0.08665,-0.60918c0.00209,-1.0127 0.90596,-2.06398 1.24042,-0.63467c0.63584,2.71723 0.14703,5.46391 0.8715,8.1104c0.02255,0.12552 0.04755,0.24343 0.06596,0.34875l-0.11147,0.01899l0.17836,0.90267c0.03865,0.23768 0.25816,0.43824 0.50677,0.43824c0.27614,0 0.40974,-0.18134 0.40974,-0.45748l0.00596,-0.56528l-0.01565,0.00016l0.01476,-0.03518c-0.05025,-0.35212 -0.85016,-5.99095 0.91657,-4.45452c0.29919,0.26018 0.40721,0.8085 0.45588,1.44872c-0.01691,0.70707 0.08073,1.57459 0.08213,1.87932l-0.02545,0.27119l-0.27038,0.10026l0.24685,0.65251c0.06806,0.19526 0.25654,0.34149 0.475,0.34149c0.26123,0 0.38292,-0.16305 0.40532,-0.41847l0.08478,-0.80777l-0.00775,-0.00074l0.00972,-0.02394c0.00021,-0.28153 0.00434,-0.55773 0.00446,-0.83926c0.00101,-2.31201 0.63908,-1.41258 1.17393,-0.22077c0.0159,0.14129 0.03698,0.28318 0.04588,0.41233c0.10036,0.45301 0.2102,0.9152 0.3252,1.36471l0.00117,0.53145c0,0.27614 0.22475,0.50476 0.50089,0.50476c0.27614,0 0.40146,-0.20714 0.40146,-0.48328l0.00146,-0.81412l-0.04866,0.0001c-0.00416,-0.0172 -0.00819,-0.03404 -0.01234,-0.05124c0.06981,-0.3043 0.20877,-0.64971 0.2165,-0.95812c0.53817,0.79983 1.42385,2.41626 1.59386,2.88094c0.65042,1.7777 0.09133,6.04561 -0.73904,7.70197c-0.56591,1.51527 -1.07918,1.25693 -2.3392,1.98595c-0.69941,0.40467 -0.77162,1.12422 -1.2543,1.48914c-0.51459,0.38904 -1.29663,-0.07247 -1.94173,-0.07247c-2.46074,0 -4.23712,0.26978 -5.35678,-2.22546c-1.83262,-2.19584 -3.15867,-4.98981 -4.43538,-7.54043c-0.41487,-0.82883 -1.8874,-3.3921 -0.08331,-2.61813c0.84994,0.42294 3.30258,2.03028 4.6418,2.14308c0.08678,0.53848 0.09625,1.03224 0.16085,1.61897l0.1018,0.34538c0,0 0.15162,0.46821 0.62596,0.3101z" data-paper-data="{&quot;noHover&quot;:false,&quot;origItem&quot;:[&quot;Path&quot;,{&quot;applyMatrix&quot;:true,&quot;segments&quot;:[[[240.38684,194.47107],[0,0],[-0.47434,0.15811]],[239.75438,194.15484],[[239.64981,193.80604],[0,0],[-0.0646,-0.58673]],[[239.48,192.16647],[0.08678,0.53848],[-1.33922,-0.1128]],[[234.93638,190.02409],[0.84994,0.42294],[-1.80409,-0.77397]],[[235.0202,192.62558],[-0.41487,-0.82883],[1.27671,2.55062]],[[239.42378,200.12607],[-1.83262,-2.19584],[1.11966,2.49524]],[[244.75332,202.34919],[-2.46074,0],[0.6451,0]],[[246.68718,202.42386],[-0.51459,0.38904],[0.48268,-0.36492]],[[247.93434,200.93803],[-0.69941,0.40467],[1.26002,-0.72902]],[[250.26221,198.9608],[-0.56591,1.51527],[0.83037,-1.65636]],[[250.98712,191.29537],[0.65042,1.7777],[-0.17001,-0.46468]],[[249.39792,188.4339],[0.53817,0.79983],[-0.00773,0.30841]],[[249.27413,189.35496],[0.06981,-0.3043],[0.00415,0.0172]],[[249.28659,189.40656],[-0.00416,-0.0172],[0,0]],[249.33528,189.40656],[[249.33528,190.22623],[0,0],[0,0.27614]],[[248.83528,190.72623],[0.27614,0],[-0.27614,0]],[[248.33528,190.22623],[0,0.27614],[0,0]],[[248.33528,189.69892],[0,0],[-0.115,-0.44951]],[[248.01475,188.34435],[0.10036,0.45301],[-0.0089,-0.12915]],[[247.97044,187.93446],[0.0159,0.14129],[-0.53485,-1.19181]],[[246.87627,188.09508],[0.00101,-2.31201],[-0.00012,0.28153]],[[246.87565,188.93966],[0.00021,-0.28153],[0,0]],[246.86601,188.96373],[246.87379,188.96451],[[246.79237,189.77868],[0,0],[-0.0224,0.25542]],[[246.2943,190.23443],[0.26123,0],[-0.21846,0]],[[245.82204,189.89906],[0.06806,0.19526],[0,0]],[245.58024,189.25425],[245.84994,189.15311],[[245.87687,188.88377],[0,0],[-0.0014,-0.30473]],[[245.80472,187.01352],[-0.01691,0.70707],[-0.04867,-0.64022]],[[245.35674,185.56924],[0.29919,0.26018],[-1.76673,-1.53643]],[[244.49796,189.94488],[-0.05025,-0.35212],[0,0]],[244.48343,189.98032],[244.49922,189.98032],[[244.49922,190.55409],[0,0],[0,0.27614]],[[243.99922,191.05409],[0.27614,0],[-0.24861,0]],[[243.50573,190.63496],[0.03865,0.23768],[0,0]],[243.34336,189.7419],[[243.45262,189.72203],[0,0],[-0.01841,-0.10532]],[[243.39056,189.37474],[0.02255,0.12552],[-0.72447,-2.64649]],[[242.53532,181.26684],[0.63584,2.71723],[-0.33446,-1.42931]],[[241.30125,181.90102],[0.00209,-1.0127],[-0.02858,0.20301]],[[241.21552,182.51006],[0.02857,-0.20302],[0,0]],[241.22055,182.76722],[[240.72055,183.26722],[0.5,0],[-0.36633,0]],[[240.2301,182.85532],[0.02619,0.14351],[-0.05022,2.18705]],[[239.99027,189.46088],[-0.11002,-2.201],[0.01057,0.21143]],[[240.1985,191.04534],[-0.05549,-0.63969],[0.07545,0.09663]],[[240.30129,191.24221],[0,0],[0.23042,0.85982]],[[240.64372,193.6956],[-0.09788,-0.87243],[0,0]],[240.70309,193.8386],[[240.38686,194.47106],[0.47434,-0.15812],[0,0]]],&quot;closed&quot;:true,&quot;fillColor&quot;:[0,0,0],&quot;strokeWidth&quot;:0.5}]}" fill="#ffffff" stroke-width="0.25"/></g></g></svg>