<svg version="1.1" xmlns="http://www.w3.org/2000/svg" xmlns:xlink="http://www.w3.org/1999/xlink" width="13.07268" height="21.17367" viewBox="0,0,13.07268,21.17367"><g transform="translate(-239.93581,-180.9512)"><g data-paper-data="{&quot;isPaintingLayer&quot;:true}" fill-rule="nonzero" stroke="none" stroke-linecap="butt" stroke-linejoin="miter" stroke-miterlimit="10" stroke-dasharray="" stroke-dashoffset="0" style="mix-blend-mode: normal"><path d="M241.34454,182.03547c-0.85406,3.97195 -0.21418,9.3895 0.27573,13.33668c0.89428,3.12362 2.21819,-2.08088 3.71233,-0.83108c2.02422,1.69319 1.22758,4.99224 3.84752,6.48935c0.39325,0.30759 1.84747,-0.02679 1.86988,-0.57478c0.0757,-1.85179 -6.52569,-8.182 -1.477,-8.18842c0.59013,0.01146 2.15363,0.91158 2.54616,0.05725c0.02455,-0.05344 -1.19142,-1.71001 -1.31752,-1.89503c-1.26542,-1.85672 -3.30469,-3.77912 -4.90058,-5.38569c-1.55533,-0.96275 -3.04127,-1.99604 -4.55652,-3.00828zM241.13214,180.98331c0.08973,-0.02757 0.16216,-0.02757 0.16216,-0.02757l0.35932,0.08397c1.62094,1.08332 3.21627,2.17955 4.86999,3.22146c1.85009,1.83963 4.03847,4.00859 5.43763,6.18717c0.64231,1.00012 1.99984,2.59074 -0.00963,3.20052c-0.92728,0.28139 -1.52706,-0.40647 -2.37862,-0.38165c-2.67746,-0.00375 2.76202,5.88115 2.45742,7.38535c-0.27521,1.35909 -2.43374,1.79931 -3.37603,1.2285c-1.61622,-0.92355 -2.41774,-2.45874 -3.07335,-4.18206c-0.06834,-0.17963 -0.97937,-2.72512 -1.02709,-2.64996c-0.40893,0.644 0.14741,1.0629 -0.63975,1.78683c-1.53295,1.40982 -2.85569,0.20234 -3.27373,-1.26375c-0.53648,-4.2674 -1.19246,-10.06734 -0.1591,-14.23765c0,0 0.12127,-0.48507 0.60634,-0.3638c0.01542,0.00385 0.03022,0.00808 0.04444,0.01264z" fill="#000000" stroke-width="0.5"/><path d="M245.89633,184.99397c1.59589,1.60657 3.68814,3.56564 4.95356,5.42236c0.1261,0.18502 1.34339,1.86119 1.31884,1.91463c-0.39253,0.85433 -1.95679,-0.04147 -2.54692,-0.05293c-5.04869,0.00642 1.52663,6.37035 1.45093,8.22214c-0.02241,0.54799 -1.48582,0.88597 -1.87907,0.57838c-2.61994,-1.49711 -1.85556,-4.79792 -3.87978,-6.49111c-1.49414,-1.2498 -2.83893,3.93887 -3.73321,0.81525c-0.48991,-3.94718 -1.11402,-9.43922 -0.25996,-13.41117c1.51525,1.01224 3.02028,2.03971 4.57561,3.00246z" data-paper-data="{&quot;noHover&quot;:false,&quot;origItem&quot;:[&quot;Path&quot;,{&quot;applyMatrix&quot;:true,&quot;segments&quot;:[[[241.34454,182.03547],[1.51525,1.01224],[-0.85406,3.97195]],[[241.62027,195.37215],[-0.48991,-3.94718],[0.89428,3.12362]],[[245.3326,194.54107],[-1.49414,-1.2498],[2.02422,1.69319]],[[249.18012,201.03042],[-2.61994,-1.49711],[0.39325,0.30759]],[[251.05,200.45564],[-0.02241,0.54799],[0.0757,-1.85179]],[[249.573,192.26722],[-5.04869,0.00642],[0.59013,0.01146]],[[252.11916,192.32447],[-0.39253,0.85433],[0.02455,-0.05344]],[[250.80164,190.42944],[0.1261,0.18502],[-1.26542,-1.85672]],[[245.90106,185.04375],[1.59589,1.60657],[-1.55533,-0.96275]]],&quot;closed&quot;:true,&quot;fillColor&quot;:[0,0,0,1],&quot;strokeWidth&quot;:0.5}]}" fill="#ffffff" stroke-width="0.25"/></g></g></svg>