<svg version="1.1" xmlns="http://www.w3.org/2000/svg" xmlns:xlink="http://www.w3.org/1999/xlink" width="24.90916" height="25.56858" viewBox="0,0,24.90916,25.56858"><defs><radialGradient cx="240" cy="180" r="12.03429" gradientUnits="userSpaceOnUse" id="color-1"><stop offset="0" stop-color="#777777"/><stop offset="1" stop-color="#d0d0d0"/></radialGradient></defs><g transform="translate(-227.54542,-167.21571)"><g data-paper-data="{&quot;isPaintingLayer&quot;:true}" fill-rule="nonzero" stroke-linecap="butt" stroke-linejoin="miter" stroke-miterlimit="10" stroke-dasharray="" stroke-dashoffset="0" style="mix-blend-mode: normal"><g data-paper-data="{&quot;index&quot;:null}" fill="#000000" stroke="none" stroke-width="1" font-family="&quot;Helvetica Neue&quot;, Helvetica, Arial, sans-serif" font-weight="400" font-size="16" text-anchor="start"/><path d="M240,167.96571c6.46426,0 11.70458,5.38794 11.70458,12.03429c0,6.64636 -5.24032,12.03429 -11.70458,12.03429c-6.46426,0 -11.70458,-5.38794 -11.70458,-12.03429c0,-6.64636 5.24032,-12.03429 11.70458,-12.03429z" data-paper-data="{&quot;index&quot;:null}" fill="url(#color-1)" stroke="#000000" stroke-width="1.5"/><path d="M231.73462,180.00277c-0.00378,-0.1292 0.04119,-0.25892 0.13963,-0.35735l7.08637,-7.08637c0.11264,-0.11264 0.26553,-0.15001 0.41176,-0.1292h6.96283c0.14624,-0.02085 0.29912,0.01656 0.41176,0.1292c0.18979,0.18979 0.18979,0.49745 0,0.68724l-6.75695,6.75691l6.74275,6.74275c0.09513,0.0956 0.14199,0.22103 0.14152,0.34598c0,0.00382 0.00189,0.00665 0.00189,0.01043c0,0.26124 -0.21202,0.4733 -0.4733,0.4733h-7.09963c-0.00382,0 -0.00665,-0.00189 -0.01043,-0.00189c-0.12495,0.00094 -0.25038,-0.04591 -0.34598,-0.14152l-7.07307,-7.07311c-0.098,-0.09844 -0.14297,-0.22811 -0.13916,-0.35637zM232.88997,180.00324l6.62582,6.62582h5.72751l-6.26942,-6.26993c-0.09844,-0.09844 -0.14341,-0.22815 -0.13963,-0.35688c-0.00378,-0.1292 0.04119,-0.25892 0.13963,-0.35735l6.26847,-6.26847h-5.72514z" data-paper-data="{&quot;index&quot;:null}" fill="#000000" stroke="none" stroke-width="1"/></g></g></svg>