<svg version="1.1" xmlns="http://www.w3.org/2000/svg" xmlns:xlink="http://www.w3.org/1999/xlink" width="129.32856" height="111.8266" viewBox="0,0,129.32856,111.8266"><defs><linearGradient x1="197.63816" y1="178.1328" x2="280.63816" y2="178.1328" gradientUnits="userSpaceOnUse" id="color-1"><stop offset="0" stop-color="#c74040"/><stop offset="1" stop-color="#690000"/></linearGradient><radialGradient cx="238.875" cy="178.1328" r="33.9434" gradientUnits="userSpaceOnUse" id="color-2"><stop offset="0" stop-color="#de2323"/><stop offset="1" stop-color="#940000"/></radialGradient></defs><g transform="translate(-197.63816,-136.632)"><g data-paper-data="{&quot;isPaintingLayer&quot;:true}" fill-rule="nonzero" stroke="none" stroke-width="1" stroke-linecap="butt" stroke-linejoin="miter" stroke-miterlimit="10" stroke-dasharray="" stroke-dashoffset="0" style="mix-blend-mode: normal"><path d="M280.63816,178.132c0,22.882 -18.616,41.5 -41.5,41.5c-22.883,0 -41.5,-18.618 -41.5,-41.5c0,-22.883 18.616,-41.5 41.5,-41.5c22.884,0 41.5,18.618 41.5,41.5z" fill="url(#color-1)"/><path d="M204.931,178.133c0,-18.74676 15.19724,-33.944 33.944,-33.944c18.74676,0 33.944,15.19725 33.944,33.944c0,18.74676 -15.19725,33.944 -33.944,33.944c-18.74676,0 -33.944,-15.19724 -33.944,-33.944z" fill="url(#color-2)"/><path d="M265.84513,179.99999c0,14.216 -11.63126,25.84726 -25.84725,25.84726c-14.216,0 -25.84725,-11.63126 -25.84725,-25.84725c0,-1.55083 1.03389,-2.58472 2.58472,-2.58472c1.55083,0 2.58472,1.03389 2.58472,2.58472c0,11.37279 9.30501,20.6778 20.6778,20.6778c11.37279,0 20.6778,-9.30501 20.6778,-20.6778c0,-11.37279 -9.30501,-20.6778 -20.6778,-20.6778c-5.16946,0 -10.08043,2.06778 -13.95751,5.42792l5.16946,-0.25847c1.55083,-0.25847 2.84319,0.77543 2.84319,2.32625c0.25847,1.55083 -0.77542,2.84319 -2.32625,2.84319l-6.97875,0.51694h-0.51696c-3.36014,0 -6.20333,-2.58472 -6.46181,-5.94486l-0.51694,-6.97875c-0.25847,-1.55083 0.77543,-2.84319 2.32625,-2.84319c1.55083,-0.25847 2.84319,0.77543 2.84319,2.32625l0.51694,4.13556c4.65251,-4.13557 10.85585,-6.72029 17.31766,-6.72029c14.216,0 25.84725,11.63126 25.58878,25.84726z" fill="#000000"/><text transform="translate(198.78637,240.61763) scale(0.62728,0.62728)" font-size="40" xml:space="preserve" fill="#ffffff" fill-rule="nonzero" stroke="none" stroke-width="1" stroke-linecap="butt" stroke-linejoin="miter" stroke-miterlimit="10" stroke-dasharray="" stroke-dashoffset="0" font-family="Sans Serif" font-weight="normal" text-anchor="start" style="mix-blend-mode: normal"><tspan x="0" dy="0">reset pitch</tspan></text></g></g></svg>