<svg version="1.1" xmlns="http://www.w3.org/2000/svg" xmlns:xlink="http://www.w3.org/1999/xlink" width="24.90917" height="25.56858" viewBox="0,0,24.90917,25.56858"><defs><radialGradient cx="240" cy="180" r="12.03429" gradientUnits="userSpaceOnUse" id="color-1"><stop offset="0" stop-color="#777777"/><stop offset="1" stop-color="#d0d0d0"/></radialGradient></defs><g transform="translate(-227.54542,-167.21571)"><g data-paper-data="{&quot;isPaintingLayer&quot;:true}" fill-rule="nonzero" stroke-linecap="butt" stroke-linejoin="miter" stroke-miterlimit="10" stroke-dasharray="" stroke-dashoffset="0" style="mix-blend-mode: normal"><g fill="#000000" stroke="none" stroke-width="1" font-family="&quot;Helvetica Neue&quot;, Helvetica, Arial, sans-serif" font-weight="400" font-size="16" text-anchor="start"/><g fill="#000000" stroke="none" stroke-width="1" font-family="&quot;Helvetica Neue&quot;, Helvetica, Arial, sans-serif" font-weight="400" font-size="16" text-anchor="start"/><g fill="#000000" stroke="none" stroke-width="1" font-family="&quot;Helvetica Neue&quot;, Helvetica, Arial, sans-serif" font-weight="400" font-size="16" text-anchor="start"/><path d="M251.70458,180c0,6.64635 -5.24032,12.03429 -11.70458,12.03429c-6.46426,0 -11.70458,-5.38793 -11.70458,-12.03429c0,-6.64635 5.24032,-12.03429 11.70458,-12.03429c6.46426,0 11.70458,5.38793 11.70458,12.03429z" fill="url(#color-1)" stroke="#000000" stroke-width="1.5"/><path d="M248.26538,180.00277c0.00378,-0.1292 -0.04119,-0.25892 -0.13963,-0.35735l-7.08637,-7.08637c-0.11264,-0.11264 -0.26553,-0.15001 -0.41176,-0.1292h-6.96283c-0.14624,-0.02085 -0.29912,0.01656 -0.41176,0.1292c-0.18979,0.18979 -0.18979,0.49745 0,0.68724l6.75695,6.75691l-6.74275,6.74275c-0.09513,0.0956 -0.14199,0.22103 -0.14152,0.34598c0,0.00382 -0.00189,0.00665 -0.00189,0.01043c0,0.26124 0.21202,0.4733 0.4733,0.4733h7.09963c0.00382,0 0.00665,-0.00189 0.01043,-0.00189c0.12495,0.00094 0.25038,-0.04591 0.34598,-0.14152l7.07307,-7.07311c0.098,-0.09844 0.14297,-0.22811 0.13916,-0.35637zM247.11003,180.00324l-6.62582,6.62582h-5.72751l6.26942,-6.26993c0.09844,-0.09844 0.14341,-0.22815 0.13963,-0.35688c0.00378,-0.1292 -0.04119,-0.25892 -0.13963,-0.35735l-6.26847,-6.26847h5.72514z" fill="#000000" stroke="none" stroke-width="1"/></g></g></svg>