<svg version="1.1" xmlns="http://www.w3.org/2000/svg" xmlns:xlink="http://www.w3.org/1999/xlink" width="106.14815" height="46.25228" viewBox="0,0,106.14815,46.25228"><defs><linearGradient x1="240.00001" y1="156.8739" x2="240.00001" y2="203.12615" gradientUnits="userSpaceOnUse" id="color-1"><stop offset="0" stop-color="#000000"/><stop offset="1" stop-color="#bfbfbf"/></linearGradient><linearGradient x1="239.63919" y1="160.85619" x2="239.63919" y2="199.14118" gradientUnits="userSpaceOnUse" id="color-2"><stop offset="0" stop-color="#bfbfbf"/><stop offset="1" stop-color="#001f1f"/></linearGradient></defs><g transform="translate(-186.92593,-156.87391)"><g data-paper-data="{&quot;isPaintingLayer&quot;:true}" fill-rule="nonzero" stroke="none" stroke-width="1" stroke-linecap="butt" stroke-linejoin="miter" stroke-miterlimit="10" stroke-dasharray="" stroke-dashoffset="0" style="mix-blend-mode: normal"><path d="M293.07408,180.00005c0,12.75105 -10.37598,23.12614 -23.12791,23.12614h-59.89498c-12.75105,0 -23.12526,-10.37421 -23.12526,-23.12614c0,-12.75193 10.37333,-23.12614 23.12526,-23.12614h59.89498c12.75193,0 23.12703,10.37333 23.12791,23.12614z" fill="url(#color-1)"/><path d="M288.72961,179.99827c0,10.57324 -8.57058,19.14293 -19.14382,19.14293h-59.89498c-10.57236,0 -19.14205,-8.56969 -19.14205,-19.14293v0c0,-10.57147 8.56969,-19.14205 19.14205,-19.14205h59.89498c10.57236,0 19.14382,8.57058 19.14382,19.14205z" fill="url(#color-2)"/><text transform="translate(205.12111,184.31136) scale(0.35928,0.35928)" font-size="40" xml:space="preserve" fill="#ffffff" fill-rule="nonzero" stroke="none" stroke-width="1" stroke-linecap="butt" stroke-linejoin="miter" stroke-miterlimit="10" stroke-dasharray="" stroke-dashoffset="0" font-family="Sans Serif" font-weight="normal" text-anchor="start" style="mix-blend-mode: normal"><tspan x="0" dy="0">Mega Fart</tspan></text></g></g></svg>