<svg version="1.1" xmlns="http://www.w3.org/2000/svg" xmlns:xlink="http://www.w3.org/1999/xlink" width="32" height="35.11111" viewBox="0,0,32,35.11111"><g transform="translate(-224,-162.44444)"><g data-paper-data="{&quot;isPaintingLayer&quot;:true}" fill-rule="nonzero" stroke-linecap="butt" stroke-linejoin="miter" stroke-miterlimit="10" stroke-dasharray="" stroke-dashoffset="0" style="mix-blend-mode: normal"><path d="M249.08233,181.63047c-0.23258,1.09401 -0.6581,2.11661 -1.23976,3.03027l2.63946,2.63946l-2.73574,2.73574l-2.61536,-2.61536c-0.87199,0.57724 -1.84734,1.01066 -2.89249,1.26678v3.88651h-3.86888v-3.7684c-1.06157,-0.19201 -2.06018,-0.56491 -2.96268,-1.08577l-2.70706,2.70706l-2.73569,-2.73574l2.56529,-2.56529c-0.63649,-0.87746 -1.1228,-1.87077 -1.42104,-2.94256h-3.68224v-3.86888h3.44657c0.17432,-1.16475 0.56546,-2.2586 1.13132,-3.23903l-2.43071,-2.43071l2.73569,-2.73569l2.28894,2.28889c0.95235,-0.69082 2.04133,-1.20449 3.21891,-1.49306v-3.27855h3.86888v3.16049c1.19836,0.21671 2.31641,0.66412 3.30657,1.29447l2.36311,-2.36311l2.73574,2.73574l-2.33902,2.33902c0.62786,0.94843 1.08566,2.01911 1.33012,3.16883h3.49161v3.86888zM244.86376,179.69603c0,-2.66665 -2.16945,-4.8361 -4.8361,-4.8361c-2.66665,0 -4.8361,2.16945 -4.8361,4.8361c0,2.66665 2.16945,4.8361 4.8361,4.8361c2.66665,0 4.8361,-2.16945 4.8361,-4.8361z" fill="#00a8ff" stroke="#000000" stroke-width="0.5"/><path d="M241.47585,174.20565c0,0.15341 0.59695,0.27778 1.33333,0.27778c0.73638,0 1.33333,-0.12437 1.33333,-0.27778c0,-0.15341 -0.59695,-0.27778 -1.33333,-0.27778c-0.73638,0 -1.33333,0.12437 -1.33333,0.27778z" fill="none" stroke="none" stroke-width="0"/><path d="M256,180c0,9.69567 -7.16344,17.55556 -16,17.55556c-8.83656,0 -16,-7.85989 -16,-17.55556c0,-9.69567 7.16344,-17.55556 16,-17.55556c8.83656,0 16,7.85989 16,17.55556z" fill="none" stroke="none" stroke-width="1.5"/></g></g></svg>